#!OML:ASF F:\VICON\USERDATA\INSTALL\rory3\rory3.ASF
:FULLY-SPECIFIED
:DEGREES
449
root 0.599454 16.906 26.4976 7.67962 -0.161118 0.00845481
lowerback -3.14251 1.59278 -1.99854
upperback -2.32843 2.1703 -0.107028
thorax -0.697404 1.10964 1.0615
lowerneck -16.3633 0.561828 0.208867
upperneck 42.504 1.4686 -1.14388
head 18.9742 0.486209 -0.282033
rclavicle 9.36462e-015 -8.44835e-015
rhumerus -40.1028 -15.7597 -74.5387
rradius 26.7901
rwrist -9.56935
rhand -3.5356 11.9059
rfingers 7.12502
rthumb 22.1999 -16.8393
lclavicle 9.36462e-015 -8.44835e-015
lhumerus -27.7983 19.2097 77.2687
lradius 51.6993
lwrist -1.128
lhand -3.46535 13.1425
lfingers 7.12502
lthumb 22.2673 41.8797
rfemur -33.959 7.38725 20.8231
rtibia 42.5085
rfoot -17.1832 -22.7505
rtoes -5.05919
lfemur -14.6569 -8.92621 -26.302
ltibia 30.0183
lfoot -24.9395 17.559
ltoes -5.8814
450
root 0.606266 16.9265 26.6202 7.8117 -0.250296 0.0725851
lowerback -3.03685 1.69159 -1.94733
upperback -2.44535 2.29687 -0.201056
thorax -0.874721 1.17412 0.93341
lowerneck -15.8261 0.335893 -0.241528
upperneck 42.2594 1.05369 -0.654309
head 18.6559 0.320971 -0.0485804
rclavicle 8.92357e-015 -5.26779e-015
rhumerus -40.3599 -16.1329 -74.32
rradius 26.7561
rwrist -9.09764
rhand -3.14218 11.7728
rfingers 7.12502
rthumb 22.5775 -16.9269
lclavicle 8.92357e-015 -5.26779e-015
lhumerus -27.9037 18.7339 77.1551
lradius 52.6048
lwrist -0.863454
lhand -2.7133 14.978
lfingers 7.12502
lthumb 22.9891 43.6271
rfemur -34.2033 8.12043 20.4404
rtibia 40.1217
rfoot -17.342 -23.3576
rtoes -4.20961
lfemur -13.7652 -9.25993 -26.4645
ltibia 28.9954
lfoot -24.5075 18.1095
ltoes -4.49504
451
root 0.622017 16.9468 26.7536 7.91887 -0.0859715 0.271065
lowerback -2.82446 1.66589 -1.90749
upperback -2.672 2.254 -0.273489
thorax -1.2204 1.1561 0.82446
lowerneck -15.6383 0.288208 -0.329521
upperneck 42.3018 1.0008 -0.628644
head 18.6289 0.290562 -0.0311511
rclavicle 7.81162e-015 9.93923e-017
rhumerus -40.8187 -15.9556 -74.1559
rradius 26.7609
rwrist -9.06289
rhand -2.91834 11.8729
rfingers 7.12502
rthumb 22.7923 -16.8005
lclavicle 7.81162e-015 9.93923e-017
lhumerus -28.2712 18.3133 77.0155
lradius 53.4124
lwrist -0.320879
lhand -2.00051 16.6065
lfingers 7.12502
lthumb 23.6729 45.1689
rfemur -34.283 8.3985 19.9113
rtibia 37.7212
rfoot -17.9546 -23.665
rtoes -2.55443
lfemur -12.6753 -9.67965 -26.8271
ltibia 27.8549
lfoot -24.2694 18.4897
ltoes -4.40749
452
root 0.63657 16.9648 26.8879 8.113 0.00153719 0.525094
lowerback -3.09223 1.60684 -1.98773
upperback -2.66391 2.18269 -0.352632
thorax -1.06036 1.11954 0.79603
lowerneck -16.1496 0.451997 0.230695
upperneck 42.5444 1.25183 -1.06487
head 18.9355 0.418001 -0.291819
rclavicle -5.44484e-015 -1.3418e-014
rhumerus -40.8557 -15.79 -74.2213
rradius 26.8661
rwrist -8.97942
rhand -2.81024 11.4423
rfingers 7.12502
rthumb 22.8961 -17.2184
lclavicle -5.44484e-015 -1.3418e-014
lhumerus -28.1379 18.2427 76.8645
lradius 53.6634
lwrist 0.153997
lhand -1.92338 16.7839
lfingers 7.12502
lthumb 23.7469 45.3366
rfemur -34.4986 8.61735 19.296
rtibia 35.3182
rfoot -18.5237 -23.8813
rtoes -3.36216
lfemur -11.6852 -10.0112 -27.229
ltibia 26.7168
lfoot -24.2358 18.6776
ltoes -3.8283
453
root 0.635454 16.9835 27.0097 8.43882 -0.118504 0.566283
lowerback -3.42565 1.56261 -2.1843
upperback -2.71156 2.13629 -0.259836
thorax -0.932921 1.0993 1.00949
lowerneck -15.6438 0.362221 8.19836e-005
upperneck 42.2136 1.1889 -1.08228
head 18.5851 0.354564 -0.270507
rclavicle -1.19209e-014 4.52235e-015
rhumerus -40.8529 -15.4258 -74.2634
rradius 27.0298
rwrist -8.94223
rhand -2.5705 10.9252
rfingers 7.12502
rthumb 23.1261 -17.7068
lclavicle -1.19209e-014 4.52235e-015
lhumerus -28.0715 18.4147 76.6819
lradius 53.8356
lwrist 0.522552
lhand -1.99057 16.9225
lfingers 7.12502
lthumb 23.6824 45.4836
rfemur -35.0002 9.3558 18.8552
rtibia 32.9908
rfoot -18.4569 -24.5574
rtoes -5.61662
lfemur -10.9128 -9.96443 -27.2996
ltibia 25.4894
lfoot -23.6876 18.9212
ltoes -4.16941
454
root 0.619347 16.9998 27.1421 8.65127 -0.535227 0.355371
lowerback -3.86864 1.62064 -2.32118
upperback -2.54947 2.23143 -0.0840011
thorax -0.535013 1.14457 1.28605
lowerneck -15.7965 0.362778 -0.166441
upperneck 41.9727 1.22055 -1.03424
head 18.4778 0.34554 -0.210106
rclavicle 7.11898e-015 -9.69075e-015
rhumerus -40.5158 -15.6836 -74.0587
rradius 26.7614
rwrist -7.97573
rhand -2.17711 11.2754
rfingers 7.12502
rthumb 23.5035 -17.3087
lclavicle 7.11898e-015 -9.69075e-015
lhumerus -27.9207 18.4723 76.5383
lradius 54.2525
lwrist 1.07515
lhand -2.03358 16.8746
lfingers 7.12502
lthumb 23.6412 45.441
rfemur -35.4549 10.8342 18.5483
rtibia 30.8267
rfoot -19.0448 -25.1891
rtoes -5.35557
lfemur -9.97771 -9.71758 -27.0685
ltibia 24.1729
lfoot -23.3613 19.2053
ltoes -4.96359
455
root 0.633973 17.0161 27.2821 8.74122 -0.228293 0.662849
lowerback -4.21896 1.46677 -2.42703
upperback -2.32393 2.0426 -0.132857
thorax -0.102531 1.04374 1.30438
lowerneck -16.1343 0.404129 -0.200146
upperneck 41.87 1.30296 -1.0496
head 18.5089 0.369002 -0.193908
rclavicle -2.14307e-014 -4.07509e-015
rhumerus -40.0926 -16.0276 -73.8077
rradius 26.4434
rwrist -7.21897
rhand -1.65765 11.5881
rfingers 7.12502
rthumb 24.0017 -16.9313
lclavicle -2.14307e-014 -4.07509e-015
lhumerus -27.7628 18.3339 76.4713
lradius 54.6687
lwrist 1.56657
lhand -2.15975 16.6398
lfingers 7.12502
lthumb 23.5202 45.2218
rfemur -35.6005 10.8333 17.8343
rtibia 28.848
rfoot -19.8991 -25.1448
rtoes -5.2905
lfemur -8.74501 -9.70005 -27.5072
ltibia 22.7989
lfoot -22.9644 19.1234
ltoes -6.5225
456
root 0.639135 17.0257 27.4093 9.0166 -0.156321 1.403
lowerback -4.38485 1.38158 -3.10721
upperback -2.43787 1.95785 -0.308176
thorax -0.141712 1.00832 1.50449
lowerneck -16.0942 0.488522 0.120607
upperneck 41.9184 1.45489 -1.36157
head 18.5367 0.437929 -0.370507
rclavicle 1.84186e-015 -8.87077e-015
rhumerus -40.2183 -15.9754 -73.6937
rradius 26.3666
rwrist -7.12393
rhand -1.48467 11.4199
rfingers 7.12502
rthumb 24.1676 -17.0776
lclavicle 1.84186e-015 -8.87077e-015
lhumerus -27.8963 18.0605 76.2956
lradius 54.8808
lwrist 1.99372
lhand -2.19214 17.0066
lfingers 7.12502
lthumb 23.4891 45.5926
rfemur -36.105 11.282 16.4665
rtibia 27.0227
rfoot -20.6112 -25.1912
rtoes -3.65949
lfemur -7.77898 -9.54432 -28.3372
ltibia 21.3933
lfoot -22.5981 18.9078
ltoes -7.21928
457
root 0.634737 17.0364 27.5355 9.29385 -0.180132 1.64
lowerback -4.36112 1.35452 -3.41531
upperback -2.76817 1.92519 -0.34218
thorax -0.503002 1.00477 1.63392
lowerneck -15.9389 0.586113 0.566741
upperneck 42.1594 1.59912 -1.70163
head 18.6548 0.520851 -0.587333
rclavicle -1.91362e-014 1.19395e-014
rhumerus -40.7362 -15.9476 -73.3997
rradius 26.3441
rwrist -6.50561
rhand -1.26977 11.1815
rfingers 7.12502
rthumb 24.3736 -17.2884
lclavicle -1.91362e-014 1.19395e-014
lhumerus -28.4159 17.8152 75.9265
lradius 55.0828
lwrist 2.27482
lhand -2.0595 17.5873
lfingers 7.12502
lthumb 23.6163 46.1569
rfemur -36.8088 12.4492 15.4094
rtibia 25.6164
rfoot -21.6208 -25.4166
rtoes -1.73253
lfemur -6.67482 -9.27811 -28.5696
ltibia 19.6645
lfoot -22.0972 18.6188
ltoes -6.68049
